<svg xmlns="http://www.w3.org/2000/svg" xmlns:xlink="http://www.w3.org/1999/xlink" width="500" zoomAndPan="magnify" viewBox="0 0 375 374.999991" height="500" preserveAspectRatio="xMidYMid meet" version="1.0"><defs><g/><clipPath id="c75217af3b"><path d="M 130 173.84375 L 222.171875 173.84375 L 222.171875 250.34375 L 130 250.34375 Z M 130 173.84375 " clip-rule="nonzero"/></clipPath></defs><rect x="-37.5" width="450" fill="#ffffff" y="-37.499999" height="449.999989" fill-opacity="1"/><rect x="-37.5" width="450" fill="#ffffff" y="-37.499999" height="449.999989" fill-opacity="1"/><rect x="-37.5" width="450" fill="#ffffff" y="-37.499999" height="449.999989" fill-opacity="1"/><g clip-path="url(#c75217af3b)"><path fill="#000000" d="M 245.699219 156.675781 C 233.574219 156.675781 223.6875 166.558594 223.6875 178.671875 C 223.6875 190.785156 233.574219 200.664062 245.699219 200.664062 C 257.824219 200.664062 267.714844 190.785156 267.714844 178.671875 C 267.714844 166.558594 257.824219 156.675781 245.699219 156.675781 Z M 245.699219 162.175781 C 254.851562 162.175781 262.210938 169.527344 262.210938 178.671875 C 262.210938 187.8125 254.851562 195.167969 245.699219 195.167969 C 236.550781 195.167969 229.191406 187.8125 229.191406 178.671875 C 229.191406 169.527344 236.550781 162.175781 245.699219 162.175781 Z M 218.292969 189.648438 C 217.753906 189.632812 217.257812 189.765625 216.796875 190.042969 C 197.132812 201.507812 190.113281 218.09375 187.28125 230.707031 C 186.796875 228.984375 186.683594 227.617188 186.03125 225.839844 C 184.054688 220.457031 181.261719 214.96875 177.125 210.695312 C 172.988281 206.421875 167.355469 203.414062 160.398438 203.414062 C 153.445312 203.414062 147.808594 206.421875 143.675781 210.695312 C 139.539062 214.96875 136.742188 220.457031 134.769531 225.839844 C 130.816406 236.601562 130.136719 247.21875 130.136719 247.21875 C 130.113281 247.585938 130.15625 247.9375 130.273438 248.285156 C 130.390625 248.628906 130.570312 248.941406 130.8125 249.214844 C 131.050781 249.488281 131.335938 249.707031 131.664062 249.867188 C 131.988281 250.03125 132.335938 250.121094 132.699219 250.148438 C 133.0625 250.171875 133.417969 250.125 133.765625 250.007812 C 134.109375 249.890625 134.421875 249.710938 134.695312 249.472656 C 134.96875 249.230469 135.1875 248.949219 135.351562 248.621094 C 135.511719 248.292969 135.605469 247.949219 135.628906 247.585938 C 135.628906 247.585938 136.324219 237.582031 139.9375 227.726562 C 141.746094 222.800781 144.285156 217.976562 147.628906 214.519531 C 150.976562 211.0625 154.972656 208.914062 160.398438 208.914062 C 165.824219 208.914062 169.824219 211.0625 173.167969 214.519531 C 176.511719 217.976562 179.050781 222.800781 180.859375 227.726562 C 184.476562 237.582031 185.167969 247.585938 185.167969 247.585938 L 185.175781 247.585938 C 185.175781 247.585938 185.175781 247.613281 185.175781 247.613281 C 185.210938 247.96875 185.3125 248.304688 185.480469 248.617188 C 185.648438 248.933594 185.867188 249.207031 186.144531 249.4375 C 186.417969 249.667969 186.722656 249.835938 187.0625 249.945312 C 187.402344 250.054688 187.753906 250.097656 188.109375 250.074219 C 188.464844 250.046875 188.804688 249.957031 189.125 249.800781 C 189.445312 249.640625 189.726562 249.429688 189.964844 249.164062 C 190.203125 248.898438 190.382812 248.597656 190.503906 248.261719 C 190.625 247.921875 190.675781 247.578125 190.660156 247.21875 C 190.660156 247.21875 190.65625 247.195312 190.65625 247.195312 C 190.65625 247.195312 190.65625 247.175781 190.65625 247.175781 C 190.652344 247.128906 187.910156 213.242188 219.570312 194.789062 C 219.832031 194.644531 220.066406 194.457031 220.265625 194.234375 C 220.46875 194.011719 220.628906 193.761719 220.746094 193.484375 C 220.867188 193.207031 220.9375 192.917969 220.960938 192.621094 C 220.988281 192.320312 220.964844 192.023438 220.890625 191.730469 C 220.816406 191.441406 220.699219 191.167969 220.539062 190.914062 C 220.375 190.660156 220.179688 190.441406 219.941406 190.25 C 219.707031 190.0625 219.449219 189.917969 219.167969 189.8125 C 218.882812 189.710938 218.59375 189.65625 218.292969 189.648438 Z M 218.292969 189.648438 " fill-opacity="1" fill-rule="nonzero"/></g><g fill="#ff8d55" fill-opacity="0.4"><g transform="translate(176.880965, 157.751123)"><g/></g></g><g fill="#e2a165" fill-opacity="1"><g transform="translate(181.404958, 156.014522)"><g/></g></g><g fill="#ffffff" fill-opacity="0.4"><g transform="translate(108.542347, 191.907146)"><g><path d="M 15.085938 0.375 L 15.761719 0.375 C 22.21875 0.335938 25.894531 -3.867188 26.160156 -8.03125 C 26.457031 -12.386719 23.15625 -17.265625 15.199219 -18.277344 L 15.125 -18.277344 C 12.234375 -18.613281 9.230469 -20.042969 9.382812 -22.144531 C 9.496094 -23.644531 11.746094 -25.03125 15.835938 -24.84375 L 15.949219 -24.84375 C 18.203125 -24.84375 20.902344 -23.757812 22.292969 -22.742188 L 25.519531 -27.246094 C 23.382812 -28.785156 19.628906 -30.363281 16.023438 -30.363281 C 8.070312 -30.773438 4.203125 -26.722656 3.867188 -22.59375 C 3.679688 -20.191406 4.691406 -17.828125 6.644531 -16.023438 C 8.558594 -14.261719 11.296875 -13.136719 14.523438 -12.796875 C 18.914062 -12.195312 20.753906 -10.171875 20.640625 -8.40625 C 20.527344 -6.792969 18.800781 -5.179688 15.6875 -5.179688 L 15.5 -5.179688 C 15.460938 -5.179688 11.371094 -4.953125 8.855469 -7.019531 C 8.21875 -7.507812 7.695312 -8.105469 7.207031 -8.820312 L 2.628906 -5.703125 C 3.378906 -4.578125 4.316406 -3.566406 5.367188 -2.703125 C 8.78125 0.0742188 13.285156 0.375 15.085938 0.375 Z M 15.085938 0.375 "/></g></g></g><g fill="#ffffff" fill-opacity="0.4"><g transform="translate(137.322783, 191.907146)"><g><path d="M 20.339844 0 L 26.195312 0 L 17.375 -29.949219 L 17.375 -30.023438 L 11.484375 -30.023438 L 2.628906 0 L 8.519531 0 L 10.734375 -7.46875 L 18.128906 -7.46875 Z M 12.386719 -13.058594 L 14.449219 -20.042969 L 16.476562 -13.058594 Z M 12.386719 -13.058594 "/></g></g></g><g fill="#ffffff" fill-opacity="0.4"><g transform="translate(166.140744, 191.907146)"><g><path d="M 8.21875 -5.59375 L 8.21875 -30.023438 L 2.628906 -30.023438 L 2.628906 0 L 20.003906 0 L 20.003906 -5.59375 Z M 8.21875 -5.59375 "/></g></g></g><g fill="#ffffff" fill-opacity="0.4"><g transform="translate(188.767348, 191.907146)"><g><path d="M 25.183594 -30.023438 L 2.628906 -30.023438 L 2.628906 -24.433594 L 11.109375 -24.433594 L 11.109375 0 L 16.699219 0 L 16.699219 -24.433594 L 25.183594 -24.433594 Z M 25.183594 -30.023438 "/></g></g></g><g fill="#ffffff" fill-opacity="0.4"><g transform="translate(216.572175, 191.907146)"><g><path d="M 16.664062 -30.398438 C 8.179688 -30.398438 1.3125 -23.53125 1.3125 -15.050781 C 1.3125 -6.566406 8.179688 0.300781 16.664062 0.300781 C 25.144531 0.300781 32.011719 -6.566406 32.011719 -15.050781 C 32.011719 -23.53125 25.144531 -30.398438 16.664062 -30.398438 Z M 16.664062 -24.65625 C 21.992188 -24.65625 25.746094 -20.339844 25.746094 -15.050781 C 25.746094 -9.757812 21.992188 -5.441406 16.664062 -5.441406 C 11.371094 -5.441406 7.617188 -9.757812 7.617188 -15.050781 C 7.617188 -20.339844 11.371094 -24.65625 16.664062 -24.65625 Z M 16.664062 -24.65625 "/></g></g></g><g fill="#000000" fill-opacity="1"><g transform="translate(110.732465, 191.066443)"><g><path d="M 15.085938 0.375 L 15.761719 0.375 C 22.21875 0.335938 25.894531 -3.867188 26.160156 -8.03125 C 26.457031 -12.386719 23.15625 -17.265625 15.199219 -18.277344 L 15.125 -18.277344 C 12.234375 -18.613281 9.230469 -20.042969 9.382812 -22.144531 C 9.496094 -23.644531 11.746094 -25.03125 15.835938 -24.84375 L 15.949219 -24.84375 C 18.203125 -24.84375 20.902344 -23.757812 22.292969 -22.742188 L 25.519531 -27.246094 C 23.382812 -28.785156 19.628906 -30.363281 16.023438 -30.363281 C 8.070312 -30.773438 4.203125 -26.722656 3.867188 -22.59375 C 3.679688 -20.191406 4.691406 -17.828125 6.644531 -16.023438 C 8.558594 -14.261719 11.296875 -13.136719 14.523438 -12.796875 C 18.914062 -12.195312 20.753906 -10.171875 20.640625 -8.40625 C 20.527344 -6.792969 18.800781 -5.179688 15.6875 -5.179688 L 15.5 -5.179688 C 15.460938 -5.179688 11.371094 -4.953125 8.855469 -7.019531 C 8.21875 -7.507812 7.695312 -8.105469 7.207031 -8.820312 L 2.628906 -5.703125 C 3.378906 -4.578125 4.316406 -3.566406 5.367188 -2.703125 C 8.78125 0.0742188 13.285156 0.375 15.085938 0.375 Z M 15.085938 0.375 "/></g></g></g><g fill="#000000" fill-opacity="1"><g transform="translate(139.512901, 191.066443)"><g><path d="M 20.339844 0 L 26.195312 0 L 17.375 -29.949219 L 17.375 -30.023438 L 11.484375 -30.023438 L 2.628906 0 L 8.519531 0 L 10.734375 -7.46875 L 18.128906 -7.46875 Z M 12.386719 -13.058594 L 14.449219 -20.042969 L 16.476562 -13.058594 Z M 12.386719 -13.058594 "/></g></g></g><g fill="#000000" fill-opacity="1"><g transform="translate(168.330861, 191.066443)"><g><path d="M 8.21875 -5.59375 L 8.21875 -30.023438 L 2.628906 -30.023438 L 2.628906 0 L 20.003906 0 L 20.003906 -5.59375 Z M 8.21875 -5.59375 "/></g></g></g><g fill="#000000" fill-opacity="1"><g transform="translate(190.957466, 191.066443)"><g><path d="M 25.183594 -30.023438 L 2.628906 -30.023438 L 2.628906 -24.433594 L 11.109375 -24.433594 L 11.109375 0 L 16.699219 0 L 16.699219 -24.433594 L 25.183594 -24.433594 Z M 25.183594 -30.023438 "/></g></g></g><g fill="#000000" fill-opacity="1"><g transform="translate(218.762293, 191.066443)"><g><path d="M 16.664062 -30.398438 C 8.179688 -30.398438 1.3125 -23.53125 1.3125 -15.050781 C 1.3125 -6.566406 8.179688 0.300781 16.664062 0.300781 C 25.144531 0.300781 32.011719 -6.566406 32.011719 -15.050781 C 32.011719 -23.53125 25.144531 -30.398438 16.664062 -30.398438 Z M 16.664062 -24.65625 C 21.992188 -24.65625 25.746094 -20.339844 25.746094 -15.050781 C 25.746094 -9.757812 21.992188 -5.441406 16.664062 -5.441406 C 11.371094 -5.441406 7.617188 -9.757812 7.617188 -15.050781 C 7.617188 -20.339844 11.371094 -24.65625 16.664062 -24.65625 Z M 16.664062 -24.65625 "/></g></g></g></svg>